        <svg

            width="2300"
            height="905"
            viewBox="-250 -30 2420 701"
            fill="none"
            xmlns="http://www.w3.org/2000/svg"
        >
           <!-- <svg width="1920" height="617" viewBox="0 0 1920 617" fill="none" xmlns="http://www.w3.org/2000/svg"> -->
<g clip-path="url(#clip0_1786_391)">
<mask id="mask0_1786_391" style="mask-type:luminance" maskUnits="userSpaceOnUse" x="-1" y="0" width="1910" height="617">
<path d="M1908.95 0H-0.780029V616.29H1908.95V0Z" fill="white"/>
</mask>
<g mask="url(#mask0_1786_391)">
<g opacity="0.23">
<path d="M-1.74005 316.93C-1.74005 316.93 378.94 273.68 687.53 141.21C888.37 54.9898 1169.23 62.4898 1370.93 197.48C1547.83 315.87 1680.86 418.33 1924.86 338.8L1961.4 328.67" stroke="#E80303" stroke-width="2.75" stroke-miterlimit="10"/>
<path d="M-4.40002 328.58C-4.40002 328.58 361.18 290.14 655.62 164.84C852.11 81.5899 1117.93 79.5699 1317.36 212.57C1494.25 330.49 1634.52 435.61 1872.17 354.32C1882.19 350.89 1940.23 345.66 1956.63 354.82" stroke="#E80303" stroke-width="2.55" stroke-miterlimit="10"/>
<path d="M-7.06006 340.24C-7.06006 340.24 343.42 306.61 623.71 188.47C815.84 108.18 1066.63 96.64 1263.8 227.67C1440.67 345.11 1587.1 449.61 1819.49 369.85C1839.52 362.98 1919.07 362.66 1951.87 380.97" stroke="#E80303" stroke-width="2.34" stroke-miterlimit="10"/>
<path d="M-9.72003 351.89C-9.72003 351.89 325.42 322.48 591.8 212.09C779.41 134.35 1015.33 113.71 1210.23 242.75C1387.09 359.72 1539.66 463.58 1766.8 385.37C1796.83 375.03 1897.9 379.65 1947.09 407.11" stroke="#E80303" stroke-width="2.14" stroke-miterlimit="10"/>
<path d="M-12.3801 363.54C-12.3801 363.54 307.62 338.82 559.89 235.72C743.1 160.85 964.03 130.78 1156.66 257.85C1333.51 374.35 1492.22 477.58 1714.11 400.9C1754.14 387.07 1876.74 396.64 1942.32 433.26" stroke="#E80303" stroke-width="1.93" stroke-miterlimit="10"/>
<path d="M-15.03 375.19C-15.03 375.19 289.85 355.2 528 259.34C706.83 187.36 912.75 147.85 1103.12 272.93C1279.96 388.96 1444.82 491.56 1661.45 416.42C1711.47 399.07 1855.6 413.63 1937.58 459.4" stroke="#E80303" stroke-width="1.73" stroke-miterlimit="10"/>
<path d="M-17.6901 386.85C-17.6901 386.85 272.09 371.65 496.09 282.98C670.55 213.92 861.45 164.93 1049.55 288.04C1226.37 403.6 1397.38 505.57 1608.75 431.96C1668.75 411.07 1834.42 430.64 1932.8 485.57" stroke="#E80303" stroke-width="1.52" stroke-miterlimit="10"/>
<path d="M-20.35 398.5C-20.35 398.5 254.35 388.13 464.18 306.6C634.29 240.5 810.15 182 995.98 303.12C1172.79 418.21 1349.94 519.55 1556.06 447.47C1626.02 423.01 1813.25 447.61 1928.02 511.7" stroke="#E80303" stroke-width="1.32" stroke-miterlimit="10"/>
<path d="M-23.0101 410.15C-23.0101 410.15 236.63 404.68 432.27 330.23C598.05 267.14 758.85 199.07 942.42 318.22C1119.22 432.84 1302.51 533.54 1503.38 463.01C1583.3 434.94 1792.09 464.62 1923.26 537.86" stroke="#E80303" stroke-width="1.11" stroke-miterlimit="10"/>
<path d="M-25.67 421.8C-25.67 421.8 218.94 421.29 400.36 353.85C561.83 293.83 707.55 216.14 888.85 333.31C1065.64 447.46 1255.07 547.53 1450.69 478.53C1540.56 446.83 1770.92 481.61 1918.49 564" stroke="#E80303" stroke-width="0.91" stroke-miterlimit="10"/>
<path d="M-28.3301 433.45C-28.3301 433.45 201.37 438.27 368.45 377.48C525.73 320.89 656.25 233.21 835.28 348.4C1012.05 462.08 1207.52 561.23 1398 494.05C1497.75 458.52 1749.75 498.59 1913.71 590.14" stroke="#E80303" stroke-width="0.7" stroke-miterlimit="10"/>
<path d="M-30.9901 445.11C-30.9901 445.11 183.62 454.73 336.54 401.11C489.46 347.49 604.96 250.29 781.72 363.5C958.48 476.71 1160.19 575.52 1345.32 509.59C1455.04 470.51 1728.59 515.6 1908.95 616.3" stroke="#E80303" stroke-width="0.5" stroke-miterlimit="10"/>
</g>
</g>
</g>
<defs>
<clipPath id="clip0_1786_391">
<rect width="1992.77" height="616.51" fill="white" transform="translate(-31)"/>
</clipPath>
</defs>


        </svg>

