<svg width="1920" height="2782" viewBox="0 0 1920 2782" fill="none" xmlns="http://www.w3.org/2000/svg">
<path d="M-98.8477 657.411C-96.3799 668.518 548.91 1448.53 2135.56 375.75V2782H-98.8477V657.411Z" fill="url(#paint0_linear_4356_1937)"/>
<path d="M421.619 943.791C264.582 943.791 91.4038 922.384 -110.787 876.663L-110.32 875.138C87.3019 919.823 259.613 941.806 416.483 942.324C418.351 942.324 420.218 942.324 422.052 942.324C569.419 942.324 708.581 923.161 847.377 883.799C1119.5 806.629 1372.65 659.914 1722.97 456.862C1818.88 401.272 1918.06 343.783 2027.34 282.093L2028.34 283.416C1919.06 345.106 1819.88 402.566 1724 458.156C1209.27 756.477 886.161 943.763 421.619 943.763V943.791Z" fill="#FFDA74"/>
<path d="M310.203 956.049C182.846 956.049 43.2829 945.374 -113.221 923.737L-112.954 922.269C88.6367 950.122 262.215 959.818 417.651 951.877C564.884 944.367 700.412 920.658 832.004 879.397C1086.02 799.753 1316.52 657.354 1608.35 477.032C1725.91 404.408 1859.13 322.117 2008.2 235.078L2009.17 236.315C1860.1 323.325 1726.87 405.617 1609.35 478.24C1317.39 658.591 1086.79 801.076 832.571 880.778C700.812 922.097 565.117 945.835 417.718 953.344C382.835 955.128 346.986 956.02 310.169 956.02L310.203 956.049Z" fill="#FFE18B"/>
<path d="M139.425 979.327C59.3557 979.327 -25.4157 976.449 -115.656 970.81L-115.556 969.429C279.721 994.116 569.418 965.487 823.799 876.577C1064.37 792.473 1265.93 658.303 1521.15 488.397C1655.57 398.912 1807.91 297.487 1989.06 188.091L1989.99 189.242C1808.84 298.609 1656.54 400.035 1522.11 489.519C1266.83 659.483 1065.17 793.739 824.399 877.901C627.878 946.583 410.313 979.355 139.358 979.355L139.425 979.327Z" fill="#FFE7A2"/>
<path d="M-118.09 1017.88V1016.59C737.228 1013.74 1008.38 817.275 1457.68 491.764C1601.35 387.662 1764.19 269.692 1969.98 141.075L1970.88 142.14C1765.12 270.727 1602.32 388.698 1458.65 492.771C1009.12 818.484 737.761 1015.06 -118.09 1017.91V1017.88Z" fill="#FFEDB9"/>
<path d="M-120.558 1064.96L-120.658 1063.75C757.136 1010.14 1018.42 802.371 1413.9 487.908C1560.8 371.088 1727.31 238.703 1950.87 94.0308L1951.71 95.0091C1728.21 239.623 1561.73 372.009 1414.86 488.829C1019.15 803.464 757.77 1011.32 -120.525 1064.98L-120.558 1064.96Z" fill="#FFF3D1"/>
<path d="M-123.058 1112.03L-123.225 1110.94C96.7742 1086.25 282.358 1054.22 444.197 1012.96C592.83 975.097 721.488 929.29 837.574 872.981C1057.57 766.261 1209.74 632.523 1385.95 477.665C1531.52 349.739 1696.53 204.722 1931.73 47.0156L1932.53 47.9076C1697.39 205.556 1532.45 350.545 1386.89 478.471C1210.61 633.386 1058.41 767.182 838.241 873.988C722.089 930.355 593.331 976.162 444.597 1014.06C282.691 1055.32 97.0077 1087.37 -123.025 1112.06L-123.058 1112.03Z" fill="#FFF9E8"/>
<path d="M-125.526 1159.1L-125.727 1158.09C304.333 1090.28 615.306 999.266 852.98 871.686C1070.28 755.039 1209.34 619.143 1370.35 461.753C1511.21 324.073 1670.88 168.007 1912.62 0L1913.36 0.805651C1671.71 168.784 1512.08 324.793 1371.21 462.444C1210.14 619.862 1071.01 755.816 853.58 872.549C615.807 1000.22 304.667 1091.25 -125.526 1159.1Z" fill="white"/>
<path d="M-86.1758 867.974C953.391 1193.4 1503.67 724.798 2084.83 436.979V2782H-86.1758V867.974Z" fill="url(#paint1_linear_4356_1937)"/>
<path style="mix-blend-mode:multiply" opacity="0.3" d="M1331.79 1097.15C1112.66 1097.15 910.005 1075.31 728.79 1032.13C350.454 941.95 70.1943 759.125 -81.6406 503.474L-79.5397 502.525C71.9951 757.657 351.721 940.109 729.424 1030.14C921.643 1075.95 1138.07 1097.73 1372.71 1094.85C1614.79 1091.89 1876.61 1062.63 2150.86 1007.9L2151.4 1009.88C1876.97 1064.64 1614.99 1093.93 1372.75 1096.89C1359.04 1097.07 1345.37 1097.15 1331.76 1097.15H1331.79Z" fill="url(#paint2_linear_4356_1937)"/>
<path d="M964.698 1009.39C935.351 1009.39 906.471 1008.88 877.958 1007.87C532.803 995.641 221.964 907.307 -129.928 721.518L-128.927 720.08C222.664 905.753 533.204 993.972 878.025 1006.2C1210.04 1017.97 1591.48 962.034 2153.63 819.175L2154.17 820.786C1640.1 951.417 1276.97 1009.39 964.664 1009.39H964.698Z" fill="#FFD45D"/>
<path d="M867.521 1002.26C541.141 1002.26 236.07 933.519 -142.066 775.928L-141.266 774.49C254.912 939.619 570.854 1007.21 915.175 1000.19C1266.73 993.109 1649.97 907.595 2154.33 771.958L2154.87 773.482C1650.34 909.148 1266.97 994.691 915.209 1001.77C899.268 1002.09 883.328 1002.26 867.487 1002.26H867.521Z" fill="#FFDA74"/>
<g opacity="0.3">
<path d="M682.137 979.499C375.266 979.499 124.22 869.931 -98.9141 640.953L-97.0799 639.629C161.536 905.034 457.736 1009.68 835.106 968.911C1006.38 950.409 1199.07 901.639 1424.24 819.808C1617.59 749.543 1839.62 653.383 2123.02 517.199L2124.18 518.983C1840.69 655.196 1618.59 751.385 1425.17 821.678C1199.8 903.595 1006.92 952.424 835.406 970.925C782.782 976.593 731.759 979.47 682.17 979.47L682.137 979.499Z" fill="url(#paint3_linear_4356_1937)"/>
<path d="M646.555 963.559C547.677 963.559 453.901 951.848 363.227 928.369C202.822 886.792 50.887 808.212 -101.248 688.141L-99.714 686.702C52.1542 806.6 203.822 885.036 363.894 926.499C517.063 966.177 679.269 972.162 859.784 944.77C1204.24 892.517 1591.21 724.424 2103.91 470.184L2105.04 471.881C1592.11 726.237 1204.97 894.359 860.184 946.697C786.151 957.948 715.152 963.559 646.588 963.559H646.555Z" fill="url(#paint4_linear_4356_1937)"/>
<path d="M606.837 951.1C533.771 951.1 462.539 944.741 392.308 932.023C229.068 902.473 66.8613 838.136 -103.615 735.3L-102.381 733.775C67.8284 836.467 229.801 900.718 392.741 930.21C548.711 958.437 709.55 955.301 884.429 920.629C1230.12 852.091 1616.09 663.108 2084.77 423.197L2085.87 424.808C1617.02 664.806 1230.88 853.875 884.929 922.47C788.486 941.605 696.311 951.128 606.837 951.128V951.1Z" fill="url(#paint5_linear_4356_1937)"/>
<path d="M559.215 942.957C511.993 942.957 465.106 940.396 418.251 935.332C252.877 917.378 81.3999 867.37 -106.018 782.431L-105.05 780.849C82.1336 865.701 253.411 915.651 418.518 933.577C576.222 950.668 734.66 939.044 902.969 897.956C1229.32 818.311 1572.7 636.752 2047.98 385.447L2065.59 376.124L2066.66 377.62L2049.05 386.943C1573.64 638.306 1230.15 819.894 903.503 899.625C784.916 928.57 671.198 942.928 559.181 942.928L559.215 942.957Z" fill="url(#paint6_linear_4356_1937)"/>
<path d="M500.155 940.166C472.443 940.166 444.631 939.36 416.651 937.778C256.479 928.628 84.7355 893.237 -108.418 829.562L-107.718 827.979C85.2357 891.597 256.813 926.959 416.785 936.08C569.62 944.798 718.087 929.721 870.655 890.014C1166.55 812.988 1460.95 651.024 1868.4 426.851C1925.63 395.344 1984.82 362.802 2046.45 329.137L2047.48 330.547C1985.86 364.212 1926.66 396.783 1869.44 428.261C1461.85 652.491 1167.36 814.513 871.189 891.626C746.299 924.139 624.144 940.166 500.122 940.166H500.155Z" fill="url(#paint7_linear_4356_1937)"/>
<path d="M1245.42 1068.09C1073.35 1068.09 913.342 1054.11 766.109 1026.08C398.644 956.135 109.38 798.659 -93.6777 558.057L-91.8436 556.906C110.881 797.134 399.711 954.351 766.609 1024.18C1146.95 1096.58 1612.92 1075.26 2151.6 960.768L2152.13 962.667C1821.58 1032.93 1518.31 1068.12 1245.42 1068.12V1068.09Z" fill="url(#paint8_linear_4356_1937)"/>
<path d="M1154.52 1043.26C1030.39 1043.26 913.575 1035.49 803.392 1020.01C445.898 969.745 148.498 836.467 -105.783 612.554L-104.249 611.259C149.698 834.885 446.698 967.99 803.725 1018.17C1171.02 1069.82 1612.12 1035.58 2152.26 913.551L2152.8 915.363C1774.36 1000.88 1444.48 1043.29 1154.48 1043.29L1154.52 1043.26Z" fill="url(#paint9_linear_4356_1937)"/>
<path d="M1058.81 1023.29C983.106 1023.29 910.607 1020.16 840.675 1013.94C661.228 997.971 496.687 961.918 337.649 903.71C183.18 847.171 34.1795 769.742 -117.855 667.05L-116.588 665.669C35.28 768.274 184.114 845.617 338.45 902.099C497.288 960.25 661.628 996.245 840.875 1012.21C1191.17 1043.38 1608.09 997.051 2152.96 866.391L2153.5 868.089C1717.07 972.737 1362.64 1023.32 1058.77 1023.32L1058.81 1023.29Z" fill="url(#paint10_linear_4356_1937)"/>
<path d="M771.544 1002.92C660.894 1002.92 551.712 994.605 437.361 977.715C260.715 951.618 67.2276 903.423 -154.172 830.396L-153.538 829.015C67.7612 902.042 261.148 950.208 437.661 976.277C613.406 1002.23 776.947 1007.96 952.359 994.289C1286.58 968.249 1627.1 874.937 2155.07 724.856L2155.6 726.266C1627.53 876.376 1286.91 969.688 952.526 995.756C891.098 1000.53 831.104 1002.95 771.578 1002.95L771.544 1002.92Z" fill="url(#paint11_linear_4356_1937)"/>
</g>
<path d="M677.102 1011.47C436.527 1011.47 173.175 973.14 -166.311 884.777L-165.844 883.454C724.19 1115.05 1091.15 1002.81 1895.25 756.794C1978.05 731.445 2063.69 705.261 2155.77 677.639L2156.3 678.962C2064.26 706.585 1978.62 732.797 1895.78 758.118C1398.03 910.386 1067.61 1011.47 677.102 1011.47Z" fill="#FFE7A2"/>
<path d="M577.491 1028.07C520.532 1028.07 462.305 1026.11 402.312 1022.2C231.702 1011.06 41.7164 983.901 -178.449 939.217L-178.116 937.951C41.9832 982.635 231.868 1009.77 402.412 1020.9C563.684 1031.43 712.418 1027.84 857.083 1009.91C1136.04 975.327 1388.79 888.863 1708.8 779.352C1840.29 734.351 1989.32 683.365 2156.47 630.451L2157 631.688C1989.89 684.602 1840.86 735.588 1709.4 780.59C1389.32 890.129 1136.48 976.622 857.35 1011.24C766.375 1022.52 673.8 1028.13 577.524 1028.13L577.491 1028.07Z" fill="#FFEDB9"/>
<path d="M472.042 1052.53C286.492 1052.53 72.0618 1034.37 -190.656 993.598L-190.389 992.418C718.052 1133.49 1050.03 1003.67 1600.05 788.617C1759.29 726.352 1939.77 655.8 2157.13 583.263L2157.63 584.385C1940.3 656.893 1759.85 727.474 1600.62 789.711C1209.41 942.669 928.347 1052.53 472.042 1052.53Z" fill="#FFF3D1"/>
<path d="M353.855 1083.83C189.448 1083.83 6.8326 1072.06 -202.795 1047.98L-202.628 1046.89C25.1075 1073.04 220.929 1084.64 396.174 1082.45C557.747 1080.41 702.478 1066.48 838.673 1039.84C1097.46 989.225 1302.75 896.69 1540.49 789.538C1712.83 711.85 1908.15 623.804 2157.9 536.046L2158.4 537.082C1908.72 624.811 1713.4 712.858 1541.09 790.517C1303.28 897.697 1097.92 990.289 838.973 1040.9C702.679 1067.55 557.88 1081.5 396.208 1083.54C382.235 1083.72 368.128 1083.8 353.888 1083.8L353.855 1083.83Z" fill="#FFF9E8"/>
<path d="M223.397 1121.61C90.3039 1121.61 -54.5946 1115.22 -215 1102.39L-214.9 1101.38C20.5058 1120.23 222.563 1125.15 402.778 1116.4C567.552 1108.43 713.55 1088.95 849.178 1056.87C1105.49 996.245 1294.01 898.128 1512.34 784.531C1688.92 692.658 1889.08 588.499 2158.53 488.857L2159 489.807C1889.61 589.42 1689.52 693.55 1512.98 785.395C1294.58 899.02 1105.96 997.166 849.512 1057.85C713.817 1089.96 567.718 1109.44 402.878 1117.41C345.385 1120.2 285.692 1121.58 223.397 1121.58V1121.61Z" fill="white"/>
<defs>
<linearGradient id="paint0_linear_4356_1937" x1="1018.35" y1="-621.617" x2="1018.35" y2="4562.58" gradientUnits="userSpaceOnUse">
<stop stop-color="#F39200"/>
<stop offset="0.09" stop-color="#F3960A" stop-opacity="0.96"/>
<stop offset="0.24" stop-color="#F4A328" stop-opacity="0.84"/>
<stop offset="0.44" stop-color="#F7B758" stop-opacity="0.65"/>
<stop offset="0.68" stop-color="#FAD39A" stop-opacity="0.4"/>
<stop offset="0.95" stop-color="#FEF7ED" stop-opacity="0.07"/>
<stop offset="1" stop-color="white" stop-opacity="0"/>
</linearGradient>
<linearGradient id="paint1_linear_4356_1937" x1="999.345" y1="2782" x2="999.345" y2="436.979" gradientUnits="userSpaceOnUse">
<stop stop-color="#E94E1B"/>
<stop offset="0.19" stop-color="#EC5616" stop-opacity="0.83"/>
<stop offset="0.6" stop-color="#F56C0B" stop-opacity="0.42"/>
<stop offset="1" stop-color="#FF8300" stop-opacity="0"/>
</linearGradient>
<linearGradient id="paint2_linear_4356_1937" x1="-81.6073" y1="799.868" x2="2151.43" y2="799.868" gradientUnits="userSpaceOnUse">
<stop stop-color="#E63F23"/>
<stop offset="0.06" stop-color="#E74821"/>
<stop offset="0.22" stop-color="#E95B1E"/>
<stop offset="0.4" stop-color="#EB6A1C"/>
<stop offset="0.62" stop-color="#EC721B"/>
<stop offset="1" stop-color="#ED751B"/>
</linearGradient>
<linearGradient id="paint3_linear_4356_1937" x1="-98.9141" y1="748.364" x2="2124.18" y2="748.364" gradientUnits="userSpaceOnUse">
<stop stop-color="#E63F23"/>
<stop offset="0.06" stop-color="#E74821"/>
<stop offset="0.22" stop-color="#E95B1E"/>
<stop offset="0.4" stop-color="#EB6A1C"/>
<stop offset="0.62" stop-color="#EC721B"/>
<stop offset="1" stop-color="#ED751B"/>
</linearGradient>
<linearGradient id="paint4_linear_4356_1937" x1="-101.281" y1="716.886" x2="2105.01" y2="716.886" gradientUnits="userSpaceOnUse">
<stop stop-color="#E63F23"/>
<stop offset="0.06" stop-color="#E74821"/>
<stop offset="0.22" stop-color="#E95B1E"/>
<stop offset="0.4" stop-color="#EB6A1C"/>
<stop offset="0.62" stop-color="#EC721B"/>
<stop offset="1" stop-color="#ED751B"/>
</linearGradient>
<linearGradient id="paint5_linear_4356_1937" x1="-103.649" y1="687.134" x2="2085.84" y2="687.134" gradientUnits="userSpaceOnUse">
<stop stop-color="#E63F23"/>
<stop offset="0.06" stop-color="#E74821"/>
<stop offset="0.22" stop-color="#E95B1E"/>
<stop offset="0.4" stop-color="#EB6A1C"/>
<stop offset="0.62" stop-color="#EC721B"/>
<stop offset="1" stop-color="#ED751B"/>
</linearGradient>
<linearGradient id="paint6_linear_4356_1937" x1="-106.018" y1="659.569" x2="2066.69" y2="659.569" gradientUnits="userSpaceOnUse">
<stop stop-color="#E63F23"/>
<stop offset="0.06" stop-color="#E74821"/>
<stop offset="0.22" stop-color="#E95B1E"/>
<stop offset="0.4" stop-color="#EB6A1C"/>
<stop offset="0.62" stop-color="#EC721B"/>
<stop offset="1" stop-color="#ED751B"/>
</linearGradient>
<linearGradient id="paint7_linear_4356_1937" x1="-108.385" y1="634.652" x2="2047.52" y2="634.652" gradientUnits="userSpaceOnUse">
<stop stop-color="#E63F23"/>
<stop offset="0.06" stop-color="#E74821"/>
<stop offset="0.22" stop-color="#E95B1E"/>
<stop offset="0.4" stop-color="#EB6A1C"/>
<stop offset="0.62" stop-color="#EC721B"/>
<stop offset="1" stop-color="#ED751B"/>
</linearGradient>
<linearGradient id="paint8_linear_4356_1937" x1="-93.6777" y1="812.47" x2="2152.13" y2="812.47" gradientUnits="userSpaceOnUse">
<stop stop-color="#E63F23"/>
<stop offset="0.06" stop-color="#E74821"/>
<stop offset="0.22" stop-color="#E95B1E"/>
<stop offset="0.4" stop-color="#EB6A1C"/>
<stop offset="0.62" stop-color="#EC721B"/>
<stop offset="1" stop-color="#ED751B"/>
</linearGradient>
<linearGradient id="paint9_linear_4356_1937" x1="-105.75" y1="827.26" x2="2152.83" y2="827.26" gradientUnits="userSpaceOnUse">
<stop stop-color="#E63F23"/>
<stop offset="0.06" stop-color="#E74821"/>
<stop offset="0.22" stop-color="#E95B1E"/>
<stop offset="0.4" stop-color="#EB6A1C"/>
<stop offset="0.62" stop-color="#EC721B"/>
<stop offset="1" stop-color="#ED751B"/>
</linearGradient>
<linearGradient id="paint10_linear_4356_1937" x1="-117.855" y1="844.466" x2="2153.53" y2="844.466" gradientUnits="userSpaceOnUse">
<stop stop-color="#E63F23"/>
<stop offset="0.06" stop-color="#E74821"/>
<stop offset="0.22" stop-color="#E95B1E"/>
<stop offset="0.4" stop-color="#EB6A1C"/>
<stop offset="0.62" stop-color="#EC721B"/>
<stop offset="1" stop-color="#ED751B"/>
</linearGradient>
<linearGradient id="paint11_linear_4356_1937" x1="-154.172" y1="863.86" x2="2155.6" y2="863.86" gradientUnits="userSpaceOnUse">
<stop stop-color="#E63F23"/>
<stop offset="0.06" stop-color="#E74821"/>
<stop offset="0.22" stop-color="#E95B1E"/>
<stop offset="0.4" stop-color="#EB6A1C"/>
<stop offset="0.62" stop-color="#EC721B"/>
<stop offset="1" stop-color="#ED751B"/>
</linearGradient>
</defs>
</svg>
