<svg width="1920" height="521" viewBox="0 100 1920 521" fill="none" xmlns="http://www.w3.org/2000/svg">
<path d="M-124.851 422.507C-124.851 422.507 336.327 117.997 779.988 122.108C1223.65 126.219 1236.16 406.044 1451.72 348.435C1667.29 290.825 1687.32 99.4698 2040.75 76.8315" stroke="url(#paint0_linear_2820_533)" stroke-width="3" stroke-miterlimit="10"/>
<path opacity="0.96" d="M-124.302 430.053C-124.302 430.053 322.127 173.316 756.024 147.712C1189.92 122.108 1255.09 382.955 1454.22 338.598C1653.34 294.241 1691.78 88.2629 2027.35 68.3652" stroke="url(#paint1_linear_2820_533)" stroke-width="2.75" stroke-miterlimit="10"/>
<path opacity="0.93" d="M-123.73 437.599C-123.73 437.599 307.926 228.655 732.082 173.316C1156.24 117.997 1274.03 359.867 1456.73 328.781C1639.41 297.696 1696.24 77.0755 2013.99 59.9185" stroke="url(#paint2_linear_2820_533)" stroke-width="2.5" stroke-miterlimit="10"/>
<path opacity="0.89" d="M-123.181 445.145C-123.181 445.145 293.726 283.974 708.118 198.92C1122.51 113.867 1292.96 336.778 1459.22 318.945C1625.49 301.112 1700.67 65.8688 2000.62 51.4712" stroke="url(#paint3_linear_2820_533)" stroke-width="2.25" stroke-miterlimit="10"/>
<path opacity="0.86" d="M-122.632 452.691C-122.632 452.691 279.526 339.293 684.176 224.525C1088.83 109.756 1311.92 313.689 1461.74 309.109C1611.56 304.528 1705.13 54.6624 1987.26 43.0054" stroke="url(#paint4_linear_2820_533)" stroke-width="2" stroke-miterlimit="10"/>
<path opacity="0.82" d="M-122.061 460.237C-122.061 460.237 265.326 394.631 660.235 250.129C1055.14 105.627 1330.85 290.6 1464.25 299.272C1597.66 307.964 1709.61 43.456 1973.91 34.5396" stroke="url(#paint5_linear_2820_533)" stroke-width="1.75" stroke-miterlimit="10"/>
<path opacity="0.79" d="M-121.512 467.783C-121.512 467.783 251.125 449.95 636.27 275.752C1021.44 101.553 1349.78 267.53 1466.75 289.474C1583.71 311.417 1714.05 32.2866 1960.51 26.1108" stroke="url(#paint6_linear_2820_533)" stroke-width="1.5" stroke-miterlimit="10"/>
<path opacity="0.75" d="M-120.94 475.329C-120.94 475.329 236.925 505.269 612.329 301.356C987.733 97.4234 1368.72 244.422 1469.26 279.637C1569.81 314.852 1718.51 21.0802 1947.15 17.645" stroke="url(#paint7_linear_2820_533)" stroke-width="1.25" stroke-miterlimit="10"/>
<path opacity="0.72" d="M-120.392 482.875C-120.392 482.875 222.724 560.608 588.387 326.96C954.05 93.3126 1387.67 221.333 1471.78 269.801C1555.88 318.269 1722.97 9.85497 1933.78 9.1792" stroke="url(#paint8_linear_2820_533)" stroke-miterlimit="10"/>
<path opacity="0.68" d="M-119.843 490.422C-119.843 490.422 208.501 615.927 564.423 352.564C920.345 89.2018 1406.58 198.245 1474.27 259.965C1541.96 321.686 1727.43 -1.35138 1920.42 0.713472" stroke="#ED1C24" stroke-width="0.75" stroke-miterlimit="10"/>
<defs>
<linearGradient id="paint0_linear_2820_533" x1="-127" y1="249.378" x2="2041" y2="249.378" gradientUnits="userSpaceOnUse">
<stop stop-color="#ED1C24" stop-opacity="0.15"/>
<stop offset="1" stop-color="#E8343C"/>
</linearGradient>
<linearGradient id="paint1_linear_2820_533" x1="-126.108" y1="248.984" x2="2027.58" y2="248.984" gradientUnits="userSpaceOnUse">
<stop stop-color="#ED1C24" stop-opacity="0.24"/>
<stop offset="1" stop-color="#E93139"/>
</linearGradient>
<linearGradient id="paint2_linear_2820_533" x1="-125.193" y1="248.608" x2="2014.18" y2="248.608" gradientUnits="userSpaceOnUse">
<stop stop-color="#ED1C24" stop-opacity="0.34"/>
<stop offset="1" stop-color="#E92F37"/>
</linearGradient>
<linearGradient id="paint3_linear_2820_533" x1="-124.279" y1="248.214" x2="2000.78" y2="248.214" gradientUnits="userSpaceOnUse">
<stop stop-color="#ED1C24" stop-opacity="0.43"/>
<stop offset="1" stop-color="#EA2C34"/>
</linearGradient>
<linearGradient id="paint4_linear_2820_533" x1="-123.364" y1="247.801" x2="1987.38" y2="247.801" gradientUnits="userSpaceOnUse">
<stop stop-color="#ED1C24" stop-opacity="0.53"/>
<stop offset="1" stop-color="#EA2931"/>
</linearGradient>
<linearGradient id="paint5_linear_2820_533" x1="-122.472" y1="247.37" x2="1973.98" y2="247.37" gradientUnits="userSpaceOnUse">
<stop stop-color="#ED1C24" stop-opacity="0.62"/>
<stop offset="1" stop-color="#EB272F"/>
</linearGradient>
<linearGradient id="paint6_linear_2820_533" x1="-121.604" y1="246.938" x2="1960.58" y2="246.938" gradientUnits="userSpaceOnUse">
<stop stop-color="#ED1C24" stop-opacity="0.72"/>
<stop offset="1" stop-color="#EB242C"/>
</linearGradient>
<linearGradient id="paint7_linear_2820_533" x1="-121.1" y1="247.257" x2="1947.18" y2="247.257" gradientUnits="userSpaceOnUse">
<stop stop-color="#ED1C24" stop-opacity="0.81"/>
<stop offset="1" stop-color="#EC2129"/>
</linearGradient>
<linearGradient id="paint8_linear_2820_533" x1="-120.689" y1="252.231" x2="1933.8" y2="252.231" gradientUnits="userSpaceOnUse">
<stop stop-color="#ED1C24" stop-opacity="0.91"/>
<stop offset="1" stop-color="#EC1F27"/>
</linearGradient>
</defs>
</svg>
