<svg width="393" height="140" viewBox="0 0 393 140" fill="none" xmlns="http://www.w3.org/2000/svg">
<path d="M-17 2.05162C-17 2.05162 68.9215 -1.91945 134.18 59.7966C209.084 130.637 222.395 134.283 275.055 118.007C324.141 102.835 337.91 47.7912 393 84.478" stroke="#FF7800" strokeOpacity="0.2" strokeWidth="3" strokeMiterlimit="10"/>
<path d="M-17 10.0879C-17 10.0879 64.6746 5.44255 127.758 63.7069C199.613 130.224 217.458 136.893 269.514 117.453C318.32 99.0117 337.808 45.5198 393 80.8078" stroke="#FF7800" strokeOpacity="0.2" strokeWidth="2.77" strokeMiterlimit="10"/>
<path d="M-17 17.141C-17 17.141 60.4253 11.7887 121.338 67.0461C190.142 129.748 212.599 139.652 263.973 116.74C312.572 95.0656 337.704 42.5585 393 76.7161" stroke="#FF7800" strokeOpacity="0.2" strokeWidth="2.55" strokeMiterlimit="10"/>
<path d="M-17 25.2153C-17 25.2153 56.1789 19.1496 114.917 71.4101C180.671 130.306 207.701 143.341 258.431 117.056C306.786 92.0008 337.601 40.5766 393 73.613" stroke="#FF7800" strokeOpacity="0.2" strokeWidth="2.32" strokeMiterlimit="10"/>
<path d="M-17 32.33C-17 32.33 52.0366 25.4234 108.496 74.8038C171.32 129.749 202.794 146.05 252.89 116.386C300.992 87.9042 337.498 37.5798 393 69.4972" stroke="#FF7800" strokeOpacity="0.2" strokeWidth="2.09" strokeMiterlimit="10"/>
<path d="M-17 39.4703C-17 39.4703 47.8023 31.8241 102.074 78.1947C161.86 129.276 197.876 148.718 247.349 115.683C296.822 82.6483 337.394 34.5464 393 65.3315" stroke="#FF7800" strokeOpacity="0.2" strokeWidth="1.86" strokeMiterlimit="10"/>
<path d="M-17 47.6454C-17 47.6454 43.5597 39.3564 95.655 82.1912C152.396 128.845 192.947 151.166 241.808 115.175C289.376 80.1362 337.291 32.6584 393 61.9654" stroke="#FF7800" strokeOpacity="0.2" strokeWidth="1.64" strokeMiterlimit="10"/>
<path d="M-17 54.6582C-17 54.6582 39.3087 45.6324 89.2335 85.501C142.92 128.375 188.006 153.827 236.267 114.435C283.551 75.841 337.187 29.4561 393 57.6738" stroke="#FF7800" strokeOpacity="0.2" strokeWidth="1.41" strokeMiterlimit="10"/>
<path d="M-17 62.4377C-17 62.4377 35.0493 52.774 82.812 89.2771C133.433 127.965 183.048 156.277 230.725 113.881C277.708 72.0993 337.084 27.2716 393 54.1277" stroke="#FF7800" strokeOpacity="0.2" strokeWidth="1.18" strokeMiterlimit="10"/>
<path d="M-17 70.4093C-17 70.4093 30.7771 60.0155 76.3922 93.5416C123.937 128.488 178.079 159.949 225.185 114.085C271.854 68.6465 336.98 24.8885 393 50.6765" stroke="#FF7800" strokeOpacity="0.2" strokeWidth="0.95" strokeMiterlimit="10"/>
<path d="M-17 78.1034C-17 78.1034 26.4427 67.1855 69.9712 97.2762C114.376 128.193 173.037 162.307 219.643 113.535C265.925 64.8631 336.877 22.713 393 47.1556" stroke="#FF7800" strokeOpacity="0.2" strokeWidth="0.73" strokeMiterlimit="10"/>
<path d="M-17 85.1736C-17 85.1736 22.1938 73.5026 63.5497 100.577C104.906 127.652 168.1 164.997 214.102 112.715C260.104 60.4326 336.775 19.3616 393 42.7014" stroke="#FF7800" strokeOpacity="0.2" strokeWidth="0.5" strokeMiterlimit="10"/>
</svg>
