<svg width="1920" height="657" viewBox="0 0 1920 657" fill="none" xmlns="http://www.w3.org/2000/svg">
<g opacity="0.3" clip-path="url(#clip0_5035_2454)">
<path d="M0.109863 1.75001C0.109863 1.75001 411.02 -17.2 723.11 277.31C1081.33 615.36 1144.99 632.76 1396.83 555.09C1631.58 482.69 1697.43 220.02 1960.89 395.09" stroke="#FF7800" stroke-width="3" stroke-miterlimit="10"/>
<path d="M0.109863 37.9099C0.109863 37.9099 390.71 15.6299 692.4 295.08C1036.04 614.11 1121.38 646.1 1370.33 552.86C1603.74 464.41 1696.94 207.85 1960.89 377.1" stroke="#FF7800" stroke-width="2.77" stroke-miterlimit="10"/>
<path d="M0.109863 74.07C0.109863 74.07 370.39 48.46 661.7 312.86C990.75 612.88 1098.15 660.27 1343.84 550.64C1576.26 446.93 1696.45 195.69 1960.9 359.13" stroke="#FF7800" stroke-width="2.55" stroke-miterlimit="10"/>
<path d="M0.109863 110.23C0.109863 110.23 350.08 81.2901 630.99 330.63C945.45 611.63 1074.72 673.82 1317.33 548.41C1548.58 428.87 1695.95 183.52 1960.89 341.14" stroke="#FF7800" stroke-width="2.32" stroke-miterlimit="10"/>
<path d="M0.109863 146.39C0.109863 146.39 330.27 113.54 600.28 348.41C900.73 609.75 1051.25 687.28 1290.83 546.19C1520.87 410.72 1695.46 171.36 1960.89 323.17" stroke="#FF7800" stroke-width="2.09" stroke-miterlimit="10"/>
<path d="M0.109863 182.55C0.109863 182.55 310.02 146.29 569.57 366.19C855.49 608.43 1027.73 700.63 1264.33 543.97C1500.93 387.31 1694.96 159.2 1960.89 305.19" stroke="#FF7800" stroke-width="1.86" stroke-miterlimit="10"/>
<path d="M0.109863 218.72C0.109863 218.72 289.73 179.07 538.87 383.97C810.23 607.14 1004.16 713.91 1237.83 541.75C1465.32 374.14 1694.47 147.03 1960.89 287.22" stroke="#FF7800" stroke-width="1.64" stroke-miterlimit="10"/>
<path d="M0.109863 254.88C0.109863 254.88 269.4 211.9 508.16 401.75C764.91 605.91 980.53 727.11 1211.33 539.53C1437.46 355.75 1693.97 134.87 1960.89 269.24" stroke="#FF7800" stroke-width="1.41" stroke-miterlimit="10"/>
<path d="M0.109863 291.04C0.109863 291.04 249.03 244.78 477.45 419.52C719.54 604.72 956.82 740.25 1184.83 537.3C1409.52 337.29 1693.48 122.7 1960.89 251.26" stroke="#FF7800" stroke-width="1.18" stroke-miterlimit="10"/>
<path d="M0.109863 327.2C0.109863 327.2 228.6 277.73 446.75 437.3C674.13 603.63 933.06 753.37 1158.34 535.08C1381.53 318.81 1692.99 110.54 1960.9 233.28" stroke="#FF7800" stroke-width="0.95" stroke-miterlimit="10"/>
<path d="M0.109863 363.36C0.109863 363.36 207.87 311.13 416.04 455.08C628.4 602.98 908.94 766.18 1131.83 532.86C1353.17 300.02 1692.49 98.38 1960.89 215.31" stroke="#FF7800" stroke-width="0.73" stroke-miterlimit="10"/>
<path d="M0.109863 399.52C0.109863 399.52 187.55 343.96 385.33 472.85C583.11 601.74 885.33 779.52 1105.33 530.63C1325.33 281.74 1692 86.22 1960.89 197.33" stroke="#FF7800" stroke-width="0.5" stroke-miterlimit="10"/>
</g>
<defs>
<clipPath id="clip0_5035_2454">
<rect width="1961.72" height="656.02" fill="white"/>
</clipPath>
</defs>
</svg>
